<svg width="1080" height="1080" viewBox="0 0 1080 1080" fill="none" xmlns="http://www.w3.org/2000/svg">
<g clip-path="url(#clip0_365_14)">
<path d="M130 425.5C130 303.169 229.135 204 351.424 204H734.15L735.359 204.016C760.675 204.657 781 225.387 781 250.866C781 276.345 760.675 297.075 735.359 297.717L734.15 297.732H351.424C280.884 297.732 223.7 354.936 223.7 425.5C223.7 496.064 280.884 553.268 351.424 553.268H517.558L518.767 553.283C544.083 553.925 564.408 574.655 564.408 600.134C564.408 625.613 544.083 646.344 518.767 646.986L517.558 647H351.424C229.135 647 130 547.831 130 425.5Z" fill="#F6B51B"/>
<path d="M485.704 576.033C499.076 554.54 527.159 547.56 549.024 560.511C570.889 573.462 578.385 601.517 566.114 623.662L565.515 624.712L501.921 732.932C488.817 755.233 460.188 762.646 437.976 749.489C415.764 736.332 408.381 707.589 421.485 685.289L485.079 577.068L485.704 576.033Z" fill="#F6B51B"/>
<path d="M949 628.5C949 764.638 838.538 875 702.277 875H307.87L306.66 874.984C281.334 874.343 261 853.63 261 828.172C261 802.714 281.334 782.002 306.66 781.36L307.87 781.345H702.277C786.767 781.345 855.26 712.914 855.26 628.5C855.26 544.087 786.767 475.655 702.277 475.655H561.277L560.067 475.641C534.741 475 514.407 454.286 514.407 428.828C514.407 403.37 534.741 382.656 560.067 382.016L561.277 382H702.277C838.538 382 949 492.362 949 628.5Z" fill="#F6B51B"/>
<path d="M596.104 456.905C577.931 474.464 548.996 474.39 530.915 456.527C512.834 438.664 512.347 409.67 529.609 391.211L530.444 390.34L700.039 217.945L700.897 217.095C719.069 199.535 748.005 199.61 766.086 217.473C784.453 235.62 784.664 265.253 766.556 283.659L596.961 456.056L596.104 456.905Z" fill="#F6B51B"/>
</g>
<defs>
<clipPath id="clip0_365_14">
<rect width="1080" height="1080" fill="white"/>
</clipPath>
</defs>
</svg>
